# This file uses centimeters as units for non-parametric coordinates.

g default
v -20.136101 4.004796 9.929424
v 20.036734 4.004796 9.929424
v -20.136101 6.965861 9.929424
v 20.036734 6.965861 9.929424
v -20.136101 6.965861 -10.137534
v 20.036734 6.965861 -10.137534
v -20.136101 4.004796 -10.137534
v 20.036734 4.004796 -10.137534
v -15.720654 4.004796 -6.372657
v 15.621285 4.004796 -6.372657
v 15.621285 4.004796 6.164549
v -15.720654 4.004796 6.164549
v -15.720654 -6.965861 -6.372657
v 15.621285 -6.965861 -6.372657
v 15.621285 -6.965861 6.164549
v -15.720654 -6.965861 6.164549
vt 0.507412 0.593642
vt 0.559747 0.540014
vt 0.809609 0.784507
vt 0.756916 0.838502
vt 0.559733 0.539487
vt 0.810366 0.786000
vt 0.281536 0.972990
vt 0.041649 0.972990
vt 0.068015 0.950306
vt 0.255169 0.950306
vt 0.757674 0.839995
vt 0.507040 0.593481
vt 0.041649 0.852084
vt 0.068015 0.874768
vt 0.281536 0.852084
vt 0.255169 0.874768
vt 0.246103 0.821225
vt 0.104498 0.821225
vt 0.028893 0.821686
vt 0.246103 0.703133
vt 0.463313 0.820765
vt 0.463313 0.703593
vt 0.028893 0.702672
vt 0.104498 0.703133
vt 0.506381 0.593141
vt 0.321707 0.821225
vt 0.321707 0.703133
vt 0.984869 0.645783
vt 0.666083 0.645783
vt 0.666083 0.015180
vt 0.984869 0.015180
vt 0.559431 0.538780
vt 0.005677 0.103837
vt 0.058369 0.049842
vt 0.507176 0.593419
vt 0.559869 0.539424
vt 0.006022 0.105189
vt 0.058714 0.051194
vn 0.000000 0.000000 1.000000
vn 0.000000 0.000000 1.000000
vn 0.000000 0.000000 1.000000
vn 0.000000 0.000000 1.000000
vn 0.000000 0.000000 -1.000000
vn 0.000000 0.000000 -1.000000
vn 0.000000 0.000000 -1.000000
vn 0.000000 0.000000 -1.000000
vn 1.000000 0.000000 0.000000
vn 1.000000 0.000000 0.000000
vn 1.000000 0.000000 0.000000
vn 1.000000 0.000000 0.000000
vn -1.000000 0.000000 0.000000
vn -1.000000 0.000000 0.000000
vn -1.000000 0.000000 0.000000
vn -1.000000 0.000000 0.000000
vn 0.000000 -1.000000 -0.000000
vn 0.000000 -1.000000 -0.000000
vn 0.000000 -1.000000 -0.000000
vn 0.000000 -1.000000 -0.000000
vn 0.000000 -1.000000 0.000000
vn 0.000000 -1.000000 0.000000
vn 0.000000 -1.000000 0.000000
vn 0.000000 -1.000000 0.000000
vn 0.000000 -1.000000 0.000000
vn 0.000000 -1.000000 0.000000
vn 0.000000 -1.000000 0.000000
vn 0.000000 -1.000000 0.000000
vn 0.000000 -1.000000 0.000000
vn 0.000000 -1.000000 0.000000
vn 0.000000 -1.000000 0.000000
vn 0.000000 -1.000000 0.000000
vn 0.000000 0.000000 -1.000000
vn 0.000000 0.000000 -1.000000
vn 0.000000 0.000000 -1.000000
vn 0.000000 0.000000 -1.000000
vn 1.000000 0.000000 0.000000
vn 1.000000 0.000000 0.000000
vn 1.000000 0.000000 0.000000
vn 1.000000 0.000000 0.000000
vn 0.000000 0.000000 1.000000
vn 0.000000 0.000000 1.000000
vn 0.000000 0.000000 1.000000
vn 0.000000 0.000000 1.000000
vn -1.000000 0.000000 0.000000
vn -1.000000 0.000000 0.000000
vn -1.000000 0.000000 0.000000
vn -1.000000 0.000000 0.000000
vn 0.000000 1.000000 0.000000
vn 0.000000 1.000000 0.000000
vn 0.000000 1.000000 0.000000
vn 0.000000 1.000000 0.000000
s off
g mesa_pronta
f 1/38/1 2/32/2 4/25/3 3/37/4
f 8/34/5 7/5/6 5/12/7 6/33/8
f 4/1/9 2/2/10 8/3/11 6/4/12
f 7/36/13 1/6/14 3/11/15 5/35/16
f 7/7/17 8/8/18 10/9/19 9/10/20
f 8/8/21 2/13/22 11/14/23 10/9/24
f 2/13/25 1/15/26 12/16/27 11/14/28
f 1/15/29 7/7/30 9/10/31 12/16/32
f 9/17/33 10/18/34 14/24/35 13/20/36
f 10/18/37 11/19/38 15/23/39 14/24/40
f 11/21/41 12/26/42 16/27/43 15/22/44
f 12/26/45 9/17/46 13/20/47 16/27/48
f 5/28/49 3/29/50 4/30/51 6/31/52
