# This file uses centimeters as units for non-parametric coordinates.

mtllib pergunta_1.mtl
g default
v -9.891813 1.845778 -0.680120
v 4.621694 1.845778 -0.680111
v -9.891813 1.983383 -0.680120
v 4.621694 1.983383 -0.680111
v -9.938484 1.983383 -9.834438
v 4.602019 1.983383 -9.787039
v -9.938484 1.845778 -9.834438
v 4.602019 1.845778 -9.787039
v 4.801588 1.983383 -5.225819
v -10.071708 1.983383 -5.225827
v -10.071708 1.845778 -5.225827
v 4.801588 1.845778 -5.225819
v 4.801588 1.983383 -1.009009
v -10.071708 1.983383 -1.009017
v -10.071708 1.845778 -1.009017
v 4.801588 1.845778 -1.009009
v 4.773154 1.845778 -9.442623
v -10.071708 1.845778 -9.442635
v -10.071708 1.983383 -9.442635
v 4.773154 1.983383 -9.442623
v -2.635060 1.983383 -0.502001
v -2.635060 1.983383 -1.009014
v -2.635060 1.983383 -5.225824
v -2.635060 1.983383 -9.442635
v -2.635060 1.983383 -10.031593
v -2.635060 1.845778 -10.031593
v -2.635060 1.845778 -9.442635
v -2.635060 1.845778 -5.225824
v -2.635060 1.845778 -1.009014
v -2.635060 1.845778 -0.502001
v 4.308888 1.983383 -0.501996
v 4.308888 1.983383 -1.009009
v 4.308888 1.983383 -5.225819
v 4.308888 1.983383 -9.442635
v 4.308888 1.983383 -10.031593
v 4.308888 1.845778 -10.031593
v 4.308888 1.845778 -9.442635
v 4.308888 1.845778 -5.225819
v 4.308888 1.845778 -1.009009
v 4.308888 1.845778 -0.501996
v -9.579008 1.983383 -0.502004
v -9.579008 1.983383 -1.009017
v -9.579008 1.983383 -5.225827
v -9.579008 1.983383 -9.442635
v -9.579008 1.983383 -10.031595
v -9.579008 1.845778 -10.031595
v -9.579008 1.845778 -9.442635
v -9.579008 1.845778 -5.225827
v -9.579008 1.845778 -1.009017
v -9.579008 1.845778 -0.502004
vt 0.042807 0.526383
vt 0.050473 0.526401
vt 0.062250 0.526383
vt 0.061726 0.526401
vt 0.577018 0.529272
vt 0.563872 0.529272
vt 0.823675 0.409717
vt 0.821336 0.420314
vt 0.811267 0.422988
vt 0.816087 0.415045
vt 0.062250 0.529750
vt 0.042807 0.529750
vt 0.062250 0.526383
vt 0.042808 0.526383
vt 0.017400 0.533189
vt 0.042808 0.529750
vt 0.062250 0.529750
vt 0.032512 0.524580
vt 0.583957 0.526383
vt 0.940579 0.412339
vt 0.943325 0.420314
vt 0.560796 0.526383
vt 0.032512 0.550758
vt 0.560796 0.529750
vt 0.583957 0.529750
vt 0.008709 0.550758
vt 0.560796 0.529750
vt 0.935122 0.420314
vt 0.935122 0.409383
vt 0.560796 0.526383
vt 0.876391 0.409383
vt 0.581156 0.526383
vt 0.581156 0.529750
vt 0.876391 0.420314
vt 0.311523 0.526383
vt 0.008606 0.959636
vt 0.033793 0.959636
vt 0.311523 0.529750
vt 0.061726 0.529768
vt 0.033793 0.988793
vt 0.015734 0.978572
vt 0.033793 0.755838
vt 0.563872 0.525687
vt 0.935122 0.577056
vt 0.943325 0.577056
vt 0.943325 0.731125
vt 0.935122 0.731125
vt 0.050473 0.529768
vt 0.876391 0.577056
vt 0.572620 0.526401
vt 0.009990 0.755838
vt 0.369264 0.525861
vt 0.708888 0.525861
vt 0.577018 0.525687
vt 0.876391 0.731125
vt 0.817660 0.577056
vt 0.817660 0.731125
vt 0.810599 0.577056
vt 0.311523 0.526383
vt 0.810598 0.731125
vt 0.311523 0.529750
vt 0.708888 0.552039
vt 0.369264 0.552039
vt 0.369264 0.755838
vt 0.309930 0.525687
vt 0.939919 0.737628
vt 0.935122 0.741425
vt 0.876391 0.742056
vt 0.817660 0.742056
vt 0.572620 0.529768
vt 0.813079 0.738065
vt 0.708888 0.755838
vt 0.369264 0.959636
vt 0.708888 0.959636
vt 0.369264 0.988100
vt 0.710273 0.989485
vt 0.724000 0.534470
vt 0.732691 0.552039
vt 0.732691 0.755838
vt 0.731318 0.959636
vt 0.723050 0.976281
vt 0.311546 0.529768
vt 0.311546 0.526401
vt 0.561366 0.526401
vt 0.561366 0.529768
vt 0.309930 0.529272
vt 0.055989 0.529272
vt 0.055989 0.525687
vt 0.045269 0.529272
vt 0.045269 0.525687
vn -0.494818 0.000000 0.868997
vn -0.024538 0.000000 0.999699
vn -0.024538 0.000000 0.999699
vn -0.494818 0.000000 0.868997
vn 0.000000 1.000000 0.000000
vn 0.000000 1.000000 0.000000
vn 0.000000 1.000000 0.000000
vn 0.000000 1.000000 0.000000
vn -0.480879 0.000000 -0.876787
vn -0.026985 0.000000 -0.999636
vn -0.026985 0.000000 -0.999636
vn -0.480879 0.000000 -0.876787
vn 0.000000 -1.000000 0.000000
vn 0.000000 -1.000000 0.000000
vn 0.000000 -1.000000 0.000000
vn 0.000000 -1.000000 0.000000
vn 0.877339 0.000000 0.479870
vn 0.999218 0.000000 0.039544
vn 0.999218 0.000000 0.039544
vn 0.877339 0.000000 0.479870
vn -0.999218 0.000000 0.039544
vn -0.877339 0.000000 0.479870
vn -0.877339 0.000000 0.479870
vn -0.999218 0.000000 0.039544
vn 0.000000 1.000000 0.000000
vn 0.000000 1.000000 0.000000
vn 0.000000 1.000000 0.000000
vn 0.000000 1.000000 0.000000
vn -0.946765 0.000000 -0.321925
vn -0.999582 0.000000 -0.028895
vn -0.999582 0.000000 -0.028895
vn -0.946765 0.000000 -0.321925
vn 0.000000 -1.000000 0.000000
vn 0.000000 -1.000000 0.000000
vn 0.000000 -1.000000 0.000000
vn 0.000000 -1.000000 0.000000
vn 0.999044 0.000000 -0.043712
vn 0.999044 0.000000 -0.043712
vn 0.895541 0.000000 -0.444980
vn 0.895541 0.000000 -0.444980
vn 0.000000 1.000000 0.000000
vn 0.000000 1.000000 0.000000
vn -1.000000 0.000000 0.000000
vn -1.000000 0.000000 0.000000
vn 0.000000 -1.000000 0.000000
vn 0.000000 -1.000000 0.000000
vn 0.999994 0.000000 -0.003371
vn 0.999994 0.000000 -0.003371
vn 0.000000 1.000000 0.000000
vn 0.000000 1.000000 0.000000
vn 0.000000 1.000000 0.000000
vn 0.000000 1.000000 0.000000
vn 0.000000 1.000000 0.000000
vn 0.000000 1.000000 0.000000
vn 0.000000 1.000000 0.000000
vn 0.000000 1.000000 0.000000
vn 0.000000 1.000000 0.000000
vn 0.000000 1.000000 0.000000
vn 0.000000 0.000000 -1.000000
vn 0.000000 0.000000 -1.000000
vn 0.033773 0.000000 -0.999430
vn 0.033773 0.000000 -0.999430
vn 0.000000 -1.000000 0.000000
vn 0.000000 -1.000000 0.000000
vn 0.000000 -1.000000 0.000000
vn 0.000000 -1.000000 0.000000
vn 0.000000 -1.000000 0.000000
vn 0.000000 -1.000000 0.000000
vn 0.000000 -1.000000 0.000000
vn 0.000000 -1.000000 0.000000
vn 0.000000 -1.000000 0.000000
vn 0.000000 -1.000000 0.000000
vn -0.000001 0.000000 1.000000
vn -0.000001 0.000000 1.000000
vn 0.024537 0.000000 0.999699
vn 0.024537 0.000000 0.999699
vn 0.000000 1.000000 0.000000
vn 0.000000 1.000000 0.000000
vn 0.000000 1.000000 0.000000
vn 0.000000 1.000000 0.000000
vn 0.000000 1.000000 0.000000
vn 0.640615 0.000000 -0.767862
vn 0.640615 0.000000 -0.767862
vn 0.000000 -1.000000 0.000000
vn 0.000000 -1.000000 0.000000
vn 0.000000 -1.000000 0.000000
vn 0.000000 -1.000000 0.000000
vn 0.000000 -1.000000 0.000000
vn 0.494818 0.000000 0.868997
vn 0.494818 0.000000 0.868997
s 1
g pergunta_1
usemtl lambert2SG
f 1/2/1 50/4/2 41/39/3 3/48/4
s 2
f 3/15/5 41/18/6 42/23/7 14/26/8
s 3
f 5/5/9 45/6/10 46/43/11 7/54/12
s 4
f 15/7/13 49/8/14 50/9/15 1/10/16
s 5
f 2/1/17 16/3/18 13/11/19 4/12/20
s 6
f 15/13/21 1/14/22 3/16/23 14/17/24
s 2
f 19/36/25 44/37/26 45/40/27 5/41/28
s 6
f 7/19/29 18/22/30 19/24/31 5/25/32
s 4
f 7/20/33 46/21/34 47/28/35 18/29/36
s 5
f 20/27/37 17/30/38 8/32/39 6/33/40
s 2
f 14/26/8 42/23/7 43/42/41 10/51/42
s 6
f 11/35/43 15/13/21 14/17/24 10/38/44
s 4
f 11/31/45 48/34/46 49/8/14 15/7/13
s 5
f 13/11/19 16/3/18 12/59/47 9/61/48
s 4
f 18/29/36 47/28/35 48/34/46 11/31/45
s 6
f 19/24/31 18/22/30 11/35/43 10/38/44
s 2
f 10/51/42 43/42/41 44/37/26 19/36/25
s 5
f 9/61/48 12/59/47 17/30/38 20/27/37
s 2
f 21/52/49 31/53/50 32/62/51 22/63/52
f 23/64/53 22/63/52 32/62/51 33/72/54
f 24/73/55 23/64/53 33/72/54 34/74/56
f 25/75/57 24/73/55 34/74/56 35/76/58
s 3
f 26/65/59 25/86/60 35/87/61 36/88/62
s 4
f 27/44/63 26/45/64 36/46/65 37/47/66
f 28/49/67 27/44/63 37/47/66 38/55/68
f 29/56/69 28/49/67 38/55/68 39/57/70
f 30/58/71 29/56/69 39/57/70 40/60/72
s 1
f 21/82/73 30/83/74 40/84/75 31/85/76
s 2
f 31/53/50 4/77/77 13/78/78 32/62/51
f 33/72/54 32/62/51 13/78/78 9/79/79
f 34/74/56 33/72/54 9/79/79 20/80/80
f 35/76/58 34/74/56 20/80/80 6/81/81
s 3
f 36/88/62 35/87/61 6/89/82 8/90/83
s 4
f 37/47/66 36/46/65 8/66/84 17/67/85
f 38/55/68 37/47/66 17/67/85 12/68/86
f 39/57/70 38/55/68 12/68/86 16/69/87
f 40/60/72 39/57/70 16/69/87 2/71/88
s 1
f 31/85/76 40/84/75 2/50/89 4/70/90
s 2
f 41/18/6 21/52/49 22/63/52 42/23/7
f 43/42/41 42/23/7 22/63/52 23/64/53
f 44/37/26 43/42/41 23/64/53 24/73/55
f 45/40/27 44/37/26 24/73/55 25/75/57
s 3
f 46/43/11 45/6/10 25/86/60 26/65/59
s 4
f 47/28/35 46/21/34 26/45/64 27/44/63
f 48/34/46 47/28/35 27/44/63 28/49/67
f 49/8/14 48/34/46 28/49/67 29/56/69
f 50/9/15 49/8/14 29/56/69 30/58/71
s 1
f 41/39/3 50/4/2 30/83/74 21/82/73
