# This file uses centimeters as units for non-parametric coordinates.

mtllib pergunta_2.mtl
g default
v -9.891813 1.845778 2.711099
v 4.485611 1.845778 2.669237
v -9.891813 1.983383 2.711099
v 4.485611 1.983383 2.669237
v -9.938484 1.983383 -0.178135
v 4.525410 1.983383 -0.152936
v -9.938484 1.845778 -0.178135
v 4.525410 1.845778 -0.152936
v 4.592546 1.983383 1.345353
v -10.033795 1.983383 1.345350
v -10.033795 1.845778 1.345350
v 4.592546 1.845778 1.345353
v 4.572361 1.983383 2.508794
v -10.033795 1.983383 2.521070
v -10.033795 1.845778 2.521070
v 4.572361 1.845778 2.508794
v 4.585343 1.845778 0.017644
v -10.033795 1.845778 0.017641
v -10.033795 1.983383 0.017641
v 4.585343 1.983383 0.017644
v -2.635060 1.983383 2.762743
v -2.635060 1.983383 2.521071
v -2.635060 1.983383 1.345351
v -2.635060 1.983383 0.017641
v -2.635060 1.983383 -0.235297
v -2.635060 1.845778 -0.235297
v -2.635060 1.845778 0.017641
v -2.635060 1.845778 1.345351
v -2.635060 1.845778 2.521071
v -2.635060 1.845778 2.762743
v 4.308888 1.983383 2.762744
v 4.308888 1.983383 2.521072
v 4.308888 1.983383 1.345353
v 4.308888 1.983383 0.017641
v 4.308888 1.983383 -0.235297
v 4.308888 1.845778 -0.235297
v 4.308888 1.845778 0.017641
v 4.308888 1.845778 1.345353
v 4.308888 1.845778 2.521072
v 4.308888 1.845778 2.762744
v -9.707911 1.983383 2.762742
v -9.707911 1.983383 2.521070
v -9.707911 1.983383 1.345350
v -9.707911 1.983383 0.017641
v -9.707911 1.983383 -0.235298
v -9.707911 1.845778 -0.235298
v -9.707911 1.845778 0.017641
v -9.707911 1.845778 1.345350
v -9.707911 1.845778 2.521070
v -9.707911 1.845778 2.762742
vt 0.042807 0.367271
vt 0.050473 0.367288
vt 0.062250 0.367271
vt 0.061726 0.367288
vt 0.577018 0.370160
vt 0.563872 0.370160
vt 0.823675 0.409717
vt 0.821336 0.420314
vt 0.811267 0.422988
vt 0.816087 0.415045
vt 0.062250 0.370638
vt 0.042807 0.370638
vt 0.062250 0.367271
vt 0.042808 0.367271
vt 0.014540 0.371893
vt 0.042808 0.370638
vt 0.062250 0.370638
vt 0.032512 0.364177
vt 0.583957 0.367271
vt 0.940579 0.412339
vt 0.943325 0.420314
vt 0.560796 0.367271
vt 0.032512 0.383011
vt 0.560796 0.370638
vt 0.583957 0.370638
vt 0.009853 0.383011
vt 0.560796 0.370638
vt 0.935122 0.420314
vt 0.935122 0.409383
vt 0.560796 0.367271
vt 0.876391 0.409383
vt 0.581156 0.367271
vt 0.581156 0.370638
vt 0.876391 0.420314
vt 0.311523 0.367271
vt 0.010036 0.502832
vt 0.033793 0.502832
vt 0.311523 0.370638
vt 0.061726 0.370655
vt 0.033793 0.511185
vt 0.016020 0.509967
vt 0.033793 0.435273
vt 0.563872 0.366575
vt 0.935122 0.577056
vt 0.943325 0.577056
vt 0.943325 0.731125
vt 0.935122 0.731125
vt 0.050473 0.370655
vt 0.876391 0.577056
vt 0.572620 0.367288
vt 0.009990 0.435273
vt 0.369264 0.364602
vt 0.708888 0.364602
vt 0.577018 0.366575
vt 0.876391 0.731125
vt 0.817660 0.577056
vt 0.817660 0.731125
vt 0.810599 0.577056
vt 0.311523 0.367271
vt 0.810598 0.731125
vt 0.311523 0.370638
vt 0.708888 0.382635
vt 0.369264 0.383011
vt 0.369264 0.435273
vt 0.309930 0.366575
vt 0.939919 0.737628
vt 0.935122 0.741425
vt 0.876391 0.742056
vt 0.817660 0.742056
vt 0.572620 0.370655
vt 0.813079 0.738065
vt 0.708888 0.435273
vt 0.369264 0.502832
vt 0.708888 0.502832
vt 0.369264 0.510956
vt 0.710273 0.511415
vt 0.718617 0.370914
vt 0.724303 0.383011
vt 0.724303 0.435273
vt 0.722929 0.502832
vt 0.718004 0.509070
vt 0.311546 0.370655
vt 0.311546 0.367288
vt 0.561366 0.367288
vt 0.561366 0.370655
vt 0.309930 0.370160
vt 0.055989 0.370160
vt 0.055989 0.366575
vt 0.045269 0.370160
vt 0.045269 0.366575
vn -0.329220 -0.833385 0.443940
vn -0.003522 -0.868936 0.494912
vn -0.003522 0.868936 0.494912
vn -0.329220 0.833385 0.443941
vn 0.000000 1.000000 0.000000
vn -0.412470 0.909962 0.042880
vn -0.332051 0.840666 -0.427812
vn -0.003751 0.877685 -0.479224
vn -0.003751 -0.877685 -0.479224
vn -0.332052 -0.840665 -0.427813
vn -0.412470 -0.909962 0.042880
vn 0.000000 -1.000000 -0.000000
vn 0.412216 -0.804470 0.427674
vn 0.450835 -0.891864 0.036416
vn 0.450835 0.891864 0.036416
vn 0.412216 0.804470 0.427674
vn -0.402841 0.914923 -0.025202
vn 0.000000 1.000000 -0.000000
vn -0.402841 -0.914923 -0.025202
vn 0.000000 -1.000000 0.000000
vn 0.446453 0.894583 -0.020005
vn 0.446453 -0.894583 -0.020005
vn 0.386908 -0.819439 -0.422874
vn 0.386907 0.819439 -0.422874
vn 0.000000 1.000000 0.000000
vn -0.388995 0.921240 0.000000
vn -0.388995 -0.921240 0.000000
vn 0.000000 -1.000000 0.000000
vn 0.446525 -0.894768 0.002327
vn 0.446525 0.894768 0.002327
vn -0.000000 0.869005 0.494803
vn 0.006537 0.867271 0.497794
vn 0.000000 1.000000 0.000000
vn 0.000000 1.000000 0.000000
vn 0.000000 1.000000 0.000000
vn 0.000000 1.000000 0.000000
vn 0.000000 1.000000 0.000000
vn 0.000000 1.000000 0.000000
vn 0.000000 0.878422 -0.477885
vn 0.005533 0.876664 -0.481072
vn 0.000000 -0.878422 -0.477885
vn 0.005533 -0.876664 -0.481072
vn 0.000000 -1.000000 0.000000
vn 0.000000 -1.000000 -0.000000
vn 0.000000 -1.000000 0.000000
vn 0.000000 -1.000000 -0.000000
vn 0.000000 -1.000000 0.000000
vn 0.000000 -1.000000 0.000000
vn -0.000000 -0.869005 0.494803
vn 0.006537 -0.867271 0.497794
s 1
g pergunta_2
usemtl lambert2SG
f 1/2/1 50/4/2 41/39/3 3/48/4
f 3/15/4 41/18/3 42/23/5 14/26/6
f 5/5/7 45/6/8 46/43/9 7/54/10
f 15/7/11 49/8/12 50/9/2 1/10/1
f 2/1/13 16/3/14 13/11/15 4/12/16
f 15/13/11 1/14/1 3/16/4 14/17/6
f 19/36/17 44/37/18 45/40/8 5/41/7
f 7/19/10 18/22/19 19/24/17 5/25/7
f 7/20/10 46/21/9 47/28/20 18/29/19
f 20/27/21 17/30/22 8/32/23 6/33/24
f 14/26/6 42/23/5 43/42/25 10/51/26
f 11/35/27 15/13/11 14/17/6 10/38/26
f 11/31/27 48/34/28 49/8/12 15/7/11
f 13/11/15 16/3/14 12/59/29 9/61/30
f 18/29/19 47/28/20 48/34/28 11/31/27
f 19/24/17 18/22/19 11/35/27 10/38/26
f 10/51/26 43/42/25 44/37/18 19/36/17
f 9/61/30 12/59/29 17/30/22 20/27/21
f 21/52/31 31/53/32 32/62/33 22/63/34
f 23/64/35 22/63/34 32/62/33 33/72/36
f 24/73/37 23/64/35 33/72/36 34/74/38
f 25/75/39 24/73/37 34/74/38 35/76/40
f 26/65/41 25/86/39 35/87/40 36/88/42
f 27/44/43 26/45/41 36/46/42 37/47/44
f 28/49/45 27/44/43 37/47/44 38/55/46
f 29/56/47 28/49/45 38/55/46 39/57/48
f 30/58/49 29/56/47 39/57/48 40/60/50
f 21/82/31 30/83/49 40/84/50 31/85/32
f 31/53/32 4/77/16 13/78/15 32/62/33
f 33/72/36 32/62/33 13/78/15 9/79/30
f 34/74/38 33/72/36 9/79/30 20/80/21
f 35/76/40 34/74/38 20/80/21 6/81/24
f 36/88/42 35/87/40 6/89/24 8/90/23
f 37/47/44 36/46/42 8/66/23 17/67/22
f 38/55/46 37/47/44 17/67/22 12/68/29
f 39/57/48 38/55/46 12/68/29 16/69/14
f 40/60/50 39/57/48 16/69/14 2/71/13
f 31/85/32 40/84/50 2/50/13 4/70/16
f 41/18/3 21/52/31 22/63/34 42/23/5
f 43/42/25 42/23/5 22/63/34 23/64/35
f 44/37/18 43/42/25 23/64/35 24/73/37
f 45/40/8 44/37/18 24/73/37 25/75/39
f 46/43/9 45/6/8 25/86/39 26/65/41
f 47/28/20 46/21/9 26/45/41 27/44/43
f 48/34/28 47/28/20 27/44/43 28/49/45
f 49/8/12 48/34/28 28/49/45 29/56/47
f 50/9/2 49/8/12 29/56/47 30/58/49
f 41/39/3 50/4/2 30/83/49 21/82/31
