# This file uses centimeters as units for non-parametric coordinates.

mtllib resposta_2.mtl
g default
v -2.104806 1.845778 6.517509
v 4.542407 1.845778 6.475646
v -2.104806 1.983383 6.517509
v 4.542407 1.983383 6.475646
v -2.073921 1.983383 3.694515
v 4.571079 1.983383 3.681767
v -2.073921 1.845778 3.694515
v 4.571079 1.845778 3.681767
v 4.619447 1.983383 5.180056
v -2.207096 1.983383 5.180054
v -2.207096 1.845778 5.180054
v 4.619447 1.845778 5.180056
v 4.604905 1.983383 6.322412
v -2.207096 1.983383 6.334687
v -2.207096 1.845778 6.334687
v 4.604905 1.845778 6.322412
v 4.614258 1.845778 3.920120
v -2.207096 1.845778 3.920116
v -2.207096 1.983383 3.920116
v 4.614258 1.983383 3.920120
v 1.156893 1.983383 6.569152
v 1.156893 1.983383 6.334688
v 1.156893 1.983383 5.180055
v 1.156893 1.983383 3.920116
v 1.156893 1.983383 3.599406
v 1.156893 1.845778 3.599406
v 1.156893 1.845778 3.920116
v 1.156893 1.845778 5.180055
v 1.156893 1.845778 6.334688
v 1.156893 1.845778 6.569152
v 4.415088 1.983383 6.553124
v 4.415088 1.983383 6.334690
v 4.415088 1.983383 5.180056
v 4.415088 1.983383 3.920116
v 4.415088 1.983383 3.599406
v 4.415088 1.845778 3.599406
v 4.415088 1.845778 3.920116
v 4.415088 1.845778 5.180056
v 4.415088 1.845778 6.334690
v 4.415088 1.845778 6.553124
v -1.823233 1.983383 6.569151
v -1.823233 1.983383 6.334687
v -1.823233 1.983383 5.180054
v -1.823233 1.983383 3.920116
v -1.823233 1.983383 3.599405
v -1.823233 1.845778 3.599405
v -1.823233 1.845778 3.920116
v -1.823233 1.845778 5.180054
v -1.823233 1.845778 6.334687
v -1.823233 1.845778 6.569151
vt 0.421230 0.182888
vt 0.425164 0.182905
vt 0.431207 0.182888
vt 0.430938 0.182905
vt 0.695340 0.185777
vt 0.688594 0.185777
vt 0.823675 0.409717
vt 0.821336 0.420314
vt 0.811267 0.422988
vt 0.816087 0.415045
vt 0.431207 0.186255
vt 0.421230 0.186255
vt 0.431207 0.182888
vt 0.421231 0.182888
vt 0.396007 0.188479
vt 0.421231 0.186255
vt 0.431207 0.186255
vt 0.411929 0.181075
vt 0.698900 0.182888
vt 0.940579 0.412339
vt 0.943325 0.420314
vt 0.687016 0.182888
vt 0.411929 0.199147
vt 0.687016 0.186255
vt 0.698900 0.186255
vt 0.393088 0.199147
vt 0.687016 0.186255
vt 0.935122 0.420314
vt 0.935122 0.409383
vt 0.687016 0.182888
vt 0.876391 0.409383
vt 0.697463 0.182888
vt 0.697463 0.186255
vt 0.876391 0.420314
vt 0.559112 0.182888
vt 0.393201 0.310093
vt 0.412727 0.310093
vt 0.559112 0.186255
vt 0.430938 0.186272
vt 0.412727 0.322726
vt 0.399341 0.318191
vt 0.412727 0.249298
vt 0.688594 0.182192
vt 0.935122 0.577056
vt 0.943325 0.577056
vt 0.943325 0.731125
vt 0.935122 0.731125
vt 0.425164 0.186272
vt 0.876391 0.577056
vt 0.693083 0.182905
vt 0.393173 0.249298
vt 0.561226 0.181482
vt 0.712606 0.181482
vt 0.695340 0.182192
vt 0.876391 0.731125
vt 0.817660 0.577056
vt 0.817660 0.731125
vt 0.810599 0.577056
vt 0.559111 0.182888
vt 0.810598 0.731125
vt 0.559111 0.186255
vt 0.712606 0.198787
vt 0.561226 0.199147
vt 0.561226 0.249298
vt 0.558294 0.182192
vt 0.939919 0.737628
vt 0.935122 0.741425
vt 0.876391 0.742056
vt 0.817660 0.742056
vt 0.693083 0.186272
vt 0.813079 0.738065
vt 0.712606 0.249298
vt 0.561226 0.310093
vt 0.712606 0.310093
vt 0.561226 0.321923
vt 0.712847 0.322985
vt 0.721460 0.187540
vt 0.725001 0.199147
vt 0.725001 0.249298
vt 0.724146 0.310093
vt 0.721078 0.320114
vt 0.559123 0.186272
vt 0.559123 0.182905
vt 0.687309 0.182905
vt 0.687309 0.186272
vt 0.558294 0.185777
vt 0.427994 0.185777
vt 0.427994 0.182192
vt 0.422494 0.185777
vt 0.422494 0.182192
vn -0.278194 -0.845676 0.455457
vn -0.008059 -0.860726 0.509005
vn -0.008059 0.860726 0.509005
vn -0.278193 0.845675 0.455458
vn 0.000000 1.000000 0.000000
vn -0.351985 0.935619 0.026920
vn -0.298005 0.885419 -0.356686
vn -0.011762 0.916642 -0.399536
vn -0.011762 -0.916642 -0.399536
vn -0.298005 -0.885420 -0.356686
vn -0.351985 -0.935619 0.026920
vn 0.000000 -1.000000 -0.000000
vn 0.522430 -0.736423 0.429824
vn 0.568995 -0.821645 0.033835
vn 0.568995 0.821645 0.033835
vn 0.522430 0.736423 0.429824
vn -0.354548 0.934498 -0.031784
vn 0.000000 1.000000 0.000000
vn -0.354548 -0.934498 -0.031784
vn 0.000000 -1.000000 0.000000
vn 0.568774 0.822289 -0.018361
vn 0.568774 -0.822289 -0.018361
vn 0.509133 -0.800508 -0.316182
vn 0.509133 0.800508 -0.316182
vn 0.000000 1.000000 0.000000
vn -0.337449 0.941344 0.000000
vn -0.337449 -0.941344 0.000000
vn 0.000000 -1.000000 0.000000
vn 0.568780 -0.822487 0.002215
vn 0.568780 0.822487 0.002215
vn 0.001319 0.858050 0.513565
vn 0.014455 0.851999 0.523344
vn 0.000000 1.000000 0.000000
vn 0.000000 1.000000 0.000000
vn 0.000000 1.000000 0.000000
vn 0.000000 1.000000 0.000000
vn 0.000000 1.000000 0.000000
vn 0.000000 1.000000 0.000000
vn 0.000000 0.918981 -0.394303
vn 0.009633 0.916763 -0.399315
vn 0.000000 -0.918981 -0.394303
vn 0.009633 -0.916763 -0.399315
vn 0.000000 -1.000000 0.000000
vn 0.000000 -1.000000 -0.000000
vn 0.000000 -1.000000 0.000000
vn 0.000000 -1.000000 0.000000
vn 0.000000 -1.000000 0.000000
vn 0.000000 -1.000000 0.000000
vn 0.001319 -0.858050 0.513565
vn 0.014455 -0.851999 0.523344
s 1
g resposta_2
usemtl lambert2SG
f 1/2/1 50/4/2 41/39/3 3/48/4
f 3/15/4 41/18/3 42/23/5 14/26/6
f 5/5/7 45/6/8 46/43/9 7/54/10
f 15/7/11 49/8/12 50/9/2 1/10/1
f 2/1/13 16/3/14 13/11/15 4/12/16
f 15/13/11 1/14/1 3/16/4 14/17/6
f 19/36/17 44/37/18 45/40/8 5/41/7
f 7/19/10 18/22/19 19/24/17 5/25/7
f 7/20/10 46/21/9 47/28/20 18/29/19
f 20/27/21 17/30/22 8/32/23 6/33/24
f 14/26/6 42/23/5 43/42/25 10/51/26
f 11/35/27 15/13/11 14/17/6 10/38/26
f 11/31/27 48/34/28 49/8/12 15/7/11
f 13/11/15 16/3/14 12/59/29 9/61/30
f 18/29/19 47/28/20 48/34/28 11/31/27
f 19/24/17 18/22/19 11/35/27 10/38/26
f 10/51/26 43/42/25 44/37/18 19/36/17
f 9/61/30 12/59/29 17/30/22 20/27/21
f 21/52/31 31/53/32 32/62/33 22/63/34
f 23/64/35 22/63/34 32/62/33 33/72/36
f 24/73/37 23/64/35 33/72/36 34/74/38
f 25/75/39 24/73/37 34/74/38 35/76/40
f 26/65/41 25/86/39 35/87/40 36/88/42
f 27/44/43 26/45/41 36/46/42 37/47/44
f 28/49/45 27/44/43 37/47/44 38/55/46
f 29/56/47 28/49/45 38/55/46 39/57/48
f 30/58/49 29/56/47 39/57/48 40/60/50
f 21/82/31 30/83/49 40/84/50 31/85/32
f 31/53/32 4/77/16 13/78/15 32/62/33
f 33/72/36 32/62/33 13/78/15 9/79/30
f 34/74/38 33/72/36 9/79/30 20/80/21
f 35/76/40 34/74/38 20/80/21 6/81/24
f 36/88/42 35/87/40 6/89/24 8/90/23
f 37/47/44 36/46/42 8/66/23 17/67/22
f 38/55/46 37/47/44 17/67/22 12/68/29
f 39/57/48 38/55/46 12/68/29 16/69/14
f 40/60/50 39/57/48 16/69/14 2/71/13
f 31/85/32 40/84/50 2/50/13 4/70/16
f 41/18/3 21/52/31 22/63/34 42/23/5
f 43/42/25 42/23/5 22/63/34 23/64/35
f 44/37/18 43/42/25 23/64/35 24/73/37
f 45/40/8 44/37/18 24/73/37 25/75/39
f 46/43/9 45/6/8 25/86/39 26/65/41
f 47/28/20 46/21/9 26/45/41 27/44/43
f 48/34/28 47/28/20 27/44/43 28/49/45
f 49/8/12 48/34/28 28/49/45 29/56/47
f 50/9/2 49/8/12 29/56/47 30/58/49
f 41/39/3 50/4/2 30/83/49 21/82/31
